<svg width="29" height="28" viewBox="0 0 29 28" fill="none" xmlns="http://www.w3.org/2000/svg">
<path d="M8.08333 11.4195H4.58137C4.28398 11.4195 4.04327 11.6267 4.04327 11.8828V14.8984C4.04327 15.1542 4.28398 15.3618 4.58137 15.3618H8.08333C8.38072 15.3618 8.62143 15.1542 8.62143 14.8984V11.8828C8.62143 11.6271 8.38072 11.4195 8.08333 11.4195ZM7.54523 14.435H5.11948V12.3462H7.54523V14.435Z" fill="#9E9E9E"/>
<path d="M16.251 11.4195H12.749C12.4516 11.4195 12.2109 11.6267 12.2109 11.8828V14.8984C12.2109 15.1542 12.4516 15.3618 12.749 15.3618H16.251C16.548 15.3618 16.7891 15.1542 16.7891 14.8984V11.8828C16.7891 11.6271 16.548 11.4195 16.251 11.4195ZM15.7129 14.435H13.2871V12.3462H15.7129V14.435Z" fill="#9E9E9E"/>
<path d="M24.1668 11.4195H20.6649C20.3678 11.4195 20.1268 11.6267 20.1268 11.8828V14.8984C20.1268 15.1542 20.3678 15.3618 20.6649 15.3618H24.1668C24.4639 15.3618 24.7049 15.1542 24.7049 14.8984V11.8828C24.7049 11.6271 24.4639 11.4195 24.1668 11.4195ZM23.6287 14.435H21.203V12.3462H23.6287V14.435Z" fill="#9E9E9E"/>
<path d="M8.08333 18.2884H4.58137C4.28398 18.2884 4.04327 18.4959 4.04327 18.7517V21.7673C4.04327 22.0231 4.28398 22.2307 4.58137 22.2307H8.08333C8.38072 22.2307 8.62143 22.0231 8.62143 21.7673V18.7517C8.62143 18.4959 8.38072 18.2884 8.08333 18.2884ZM7.54523 21.3039H5.11948V19.2151H7.54523V21.3039Z" fill="#9E9E9E"/>
<path d="M16.251 18.2884H12.749C12.4516 18.2884 12.2109 18.4959 12.2109 18.7517V21.7673C12.2109 22.0231 12.4516 22.2307 12.749 22.2307H16.251C16.548 22.2307 16.7891 22.0231 16.7891 21.7673V18.7517C16.7891 18.4959 16.548 18.2884 16.251 18.2884ZM15.7129 21.3039H13.2871V19.2151H15.7129V21.3039Z" fill="#9E9E9E"/>
<path d="M24.1668 18.2884H20.6649C20.3678 18.2884 20.1268 18.4959 20.1268 18.7517V21.7673C20.1268 22.0231 20.3678 22.2307 20.6649 22.2307H24.1668C24.4639 22.2307 24.7049 22.0231 24.7049 21.7673V18.7517C24.7049 18.4959 24.4639 18.2884 24.1668 18.2884ZM23.6287 21.3039H21.203V19.2151H23.6287V21.3039Z" fill="#9E9E9E"/>
<path d="M28.4286 2.44656H24.8746C24.8699 2.44656 24.866 2.44749 24.8613 2.4478V1.8306C24.8613 0.821082 23.9078 0 22.7355 0C21.5631 0 20.6096 0.82139 20.6096 1.8306V2.44656H16.6051V1.8306C16.6051 0.821082 15.6515 0 14.4792 0C13.3069 0 12.3534 0.82139 12.3534 1.8306V2.44656H8.34845V1.8306C8.34845 0.821082 7.39494 0 6.22259 0C5.05025 0 4.09674 0.82139 4.09674 1.8306V2.44687C4.09494 2.44687 4.09315 2.44656 4.09136 2.44656H0.5381C0.24071 2.44656 0 2.65384 0 2.90993V26.9264C0 27.1822 0.24071 27.3898 0.5381 27.3898H28.4286C28.7256 27.3898 28.9667 27.1822 28.9667 26.9264V2.90993C28.9667 2.65384 28.7256 2.44656 28.4286 2.44656ZM21.6858 1.8306C21.6858 1.33202 22.1565 0.926729 22.7355 0.926729C23.3145 0.926729 23.7851 1.33202 23.7851 1.8306V4.38744C23.7851 4.88571 23.3145 5.29131 22.7355 5.29131C22.1565 5.29131 21.6858 4.88602 21.6858 4.38744V1.8306ZM14.4792 0.926729C15.0578 0.926729 15.5289 1.33202 15.5289 1.8306V4.38744C15.5289 4.88571 15.0582 5.29131 14.4792 5.29131C13.9002 5.29131 13.4296 4.88602 13.4296 4.38744V2.95318C13.431 2.93866 13.4346 2.92476 13.4346 2.90962C13.4346 2.89448 13.431 2.88058 13.4296 2.86606V1.8306C13.4296 1.33202 13.9002 0.926729 14.4792 0.926729ZM5.17294 1.8306C5.17294 1.33202 5.6436 0.926729 6.22259 0.926729C6.80123 0.926729 7.27225 1.33202 7.27225 1.8306V4.38744C7.27225 4.88571 6.80159 5.29131 6.22259 5.29131C5.6436 5.29131 5.17294 4.88602 5.17294 4.38744V1.8306ZM27.8905 26.463H1.0762V3.37329H4.09136C4.09315 3.37329 4.09494 3.37298 4.09674 3.37298V4.38775C4.09674 5.39727 5.05061 6.21835 6.22259 6.21835C7.39458 6.21835 8.34845 5.39727 8.34845 4.38775V3.3736H12.3534V4.38775C12.3534 5.39727 13.3072 6.21835 14.4792 6.21835C15.6512 6.21835 16.6051 5.39727 16.6051 4.38775V3.3736H20.6096V4.38775C20.6096 5.39727 21.5631 6.21835 22.7355 6.21835C23.9078 6.21835 24.8613 5.39727 24.8613 4.38775V3.37206C24.866 3.37206 24.8699 3.37329 24.8746 3.37329H27.8905V26.463Z" fill="#9E9E9E"/>
</svg>
