<svg width="29" height="27" viewBox="0 0 29 27" fill="none" xmlns="http://www.w3.org/2000/svg">
<path fill-rule="evenodd" clip-rule="evenodd" d="M14.5 27C22.5082 27 29 20.9559 29 13.5C29 10.7499 28.1168 8.19186 26.5999 6.05836L15.0719 17.9839C13.9561 19.1383 12.0782 19.3089 10.7436 18.3769L5.47778 14.7C4.76594 14.2029 4.62168 13.2627 5.15556 12.6C5.68943 11.9373 6.69927 11.8029 7.41111 12.3L12.6769 15.977L24.5114 3.73433C21.9089 1.42076 18.3826 0 14.5 0C6.49188 0 0 6.04416 0 13.5C0 20.9559 6.49188 27 14.5 27Z" fill="#B0ACAC"/>
</svg>
