<svg width="48" height="49" viewBox="0 0 48 49" fill="none" xmlns="http://www.w3.org/2000/svg">
<path d="M37 6.125H32C31.4478 6.125 31 6.58205 31 7.14583V7.26611L38 12.9828V7.14583C38 6.58205 37.5524 6.125 37 6.125Z" fill="#1C274C"/>
<path fill-rule="evenodd" clip-rule="evenodd" d="M21.5 19.3958C21.5 17.9863 22.6194 16.8438 24 16.8438C25.3808 16.8438 26.5 17.9863 26.5 19.3958C26.5 20.8054 25.3808 21.9479 24 21.9479C22.6194 21.9479 21.5 20.8054 21.5 19.3958Z" fill="#1C274C"/>
<path fill-rule="evenodd" clip-rule="evenodd" d="M41.5 22.3777L43.063 23.6542C43.71 24.1824 44.6538 24.0754 45.1714 23.4149C45.6888 22.7546 45.584 21.791 44.937 21.2626L28.6852 7.99035C25.9462 5.75338 22.054 5.75338 19.3148 7.99035L3.06302 21.2626C2.41612 21.791 2.31124 22.7546 2.82876 23.4149C3.34626 24.0754 4.2902 24.1824 4.9371 23.6542L6.50006 22.3777V43.3855H4.00006C3.17162 43.3855 2.50006 44.0711 2.50006 44.9167C2.50006 45.7624 3.17162 46.448 4.00006 46.448H44C44.8284 46.448 45.5 45.7624 45.5 44.9167C45.5 44.0711 44.8284 43.3855 44 43.3855H41.5V22.3777ZM18.5001 19.3959C18.5001 16.295 20.9624 13.7813 24 13.7813C27.0376 13.7813 29.5 16.295 29.5 19.3959C29.5 22.4968 27.0376 25.0105 24 25.0105C20.9624 25.0105 18.5001 22.4968 18.5001 19.3959ZM24.0988 27.0521C25.4286 27.0521 26.5742 27.0519 27.4918 27.1779C28.475 27.3128 29.4176 27.6173 30.182 28.3976C30.9466 29.1781 31.2446 30.1401 31.3768 31.144C31.4924 32.022 31.4996 33.1049 31.5 34.3552C31.5 34.4387 31.5 34.5228 31.5 34.6075V43.3855H28.5V34.7084C28.5 33.2214 28.4968 32.2602 28.4036 31.552C28.3162 30.8878 28.175 30.6798 28.0608 30.5632C27.9466 30.4466 27.7426 30.3025 27.092 30.213C26.3982 30.1179 25.4566 30.1146 24 30.1146C22.5434 30.1146 21.6018 30.1179 20.9082 30.213C20.2576 30.3025 20.0536 30.4466 19.9394 30.5632C19.8252 30.6798 19.684 30.8878 19.5965 31.552C19.5032 32.2602 19.5001 33.2214 19.5001 34.7084V43.3855H16.5001V34.6075C16.5 33.2502 16.4999 32.0805 16.6233 31.144C16.7555 30.1401 17.0536 29.1781 17.8181 28.3976C18.5826 27.6173 19.5251 27.3128 20.5084 27.1779C21.4258 27.0519 22.5716 27.0521 23.9014 27.0521H24.0988Z" fill="#1C274C"/>
<path fill-rule="evenodd" clip-rule="evenodd" d="M21.5 19.3958C21.5 17.9863 22.6194 16.8438 24 16.8438C25.3808 16.8438 26.5 17.9863 26.5 19.3958C26.5 20.8054 25.3808 21.9479 24 21.9479C22.6194 21.9479 21.5 20.8054 21.5 19.3958Z" fill="#1C274C"/>
</svg>
