<svg width="32" height="32" viewBox="0 0 32 32" fill="none" xmlns="http://www.w3.org/2000/svg">
<g clip-path="url(#clip0_18_112)">
<path d="M27.71 15.29C24.6005 12.1915 20.3897 10.4518 16 10.4518C11.6103 10.4518 7.39952 12.1915 4.29 15.29C4.1017 15.4783 3.99591 15.7337 3.99591 16C3.99591 16.2663 4.1017 16.5217 4.29 16.71C4.47831 16.8983 4.7337 17.0041 5 17.0041C5.2663 17.0041 5.5217 16.8983 5.71 16.71C8.44009 13.9828 12.1411 12.4509 16 12.4509C19.8589 12.4509 23.5599 13.9828 26.29 16.71C26.383 16.8037 26.4936 16.8781 26.6154 16.9289C26.7373 16.9796 26.868 17.0058 27 17.0058C27.132 17.0058 27.2627 16.9796 27.3846 16.9289C27.5064 16.8781 27.617 16.8037 27.71 16.71C27.8037 16.617 27.8781 16.5064 27.9289 16.3846C27.9797 16.2627 28.0058 16.132 28.0058 16C28.0058 15.868 27.9797 15.7373 27.9289 15.6154C27.8781 15.4935 27.8037 15.3829 27.71 15.29ZM24 21.17C20.7744 23.2796 16.8477 24.034 13.07 23.27C12.8048 23.2169 12.5294 23.2714 12.3043 23.4215C12.0793 23.5715 11.923 23.8048 11.87 24.07C11.817 24.3352 11.8714 24.6106 12.0215 24.8357C12.1715 25.0607 12.4048 25.2169 12.67 25.27C16.9677 26.1389 21.4347 25.2764 25.1 22.87C25.3254 22.7241 25.4837 22.4947 25.54 22.2321C25.5962 21.9696 25.5459 21.6954 25.4 21.47C25.2541 21.2446 25.0247 21.0863 24.7621 21.03C24.4996 20.9738 24.2254 21.0241 24 21.17ZM9.66 22.12C9.08852 21.8361 8.53423 21.5189 8 21.17C7.78043 21.0522 7.52481 21.0206 7.28318 21.0815C7.04156 21.1423 6.83135 21.2911 6.69371 21.4988C6.55608 21.7065 6.50095 21.9581 6.5391 22.2044C6.57726 22.4506 6.70596 22.6737 6.9 22.83C7.50715 23.2372 8.14203 23.6014 8.8 23.92C8.93336 23.987 9.08076 24.0213 9.23 24.02C9.45585 24.0187 9.6746 23.9409 9.85064 23.7994C10.0267 23.6579 10.1496 23.461 10.1995 23.2407C10.2493 23.0205 10.2232 22.7898 10.1252 22.5863C10.0272 22.3828 9.86327 22.2184 9.66 22.12Z" fill="#B2B0B0"/>
<path d="M16 22C16.7911 22 17.5645 21.7654 18.2223 21.3259C18.8801 20.8864 19.3928 20.2616 19.6955 19.5307C19.9983 18.7998 20.0775 17.9956 19.9232 17.2196C19.7688 16.4437 19.3879 15.731 18.8284 15.1716C18.269 14.6122 17.5563 14.2312 16.7804 14.0769C16.0045 13.9225 15.2002 14.0017 14.4693 14.3045C13.7384 14.6072 13.1137 15.1199 12.6741 15.7777C12.2346 16.4355 12 17.2089 12 18C12 19.0609 12.4214 20.0783 13.1716 20.8284C13.9217 21.5786 14.9392 22 16 22ZM16 16C16.3956 16 16.7823 16.1173 17.1112 16.3371C17.4401 16.5568 17.6964 16.8692 17.8478 17.2346C17.9992 17.6001 18.0388 18.0022 17.9616 18.3902C17.8844 18.7781 17.6939 19.1345 17.4142 19.4142C17.1345 19.6939 16.7782 19.8844 16.3902 19.9616C16.0022 20.0387 15.6001 19.9991 15.2347 19.8478C14.8692 19.6964 14.5568 19.44 14.3371 19.1111C14.1173 18.7822 14 18.3956 14 18C14 17.4696 14.2107 16.9609 14.5858 16.5858C14.9609 16.2107 15.4696 16 16 16ZM16 8C16.2652 8 16.5196 7.89464 16.7071 7.70711C16.8947 7.51957 17 7.26522 17 7V4C17 3.73478 16.8947 3.48043 16.7071 3.29289C16.5196 3.10536 16.2652 3 16 3C15.7348 3 15.4804 3.10536 15.2929 3.29289C15.1054 3.48043 15 3.73478 15 4V7C15 7.26522 15.1054 7.51957 15.2929 7.70711C15.4804 7.89464 15.7348 8 16 8ZM21 9C21.1647 8.99915 21.3267 8.95763 21.4715 8.87912C21.6163 8.80062 21.7394 8.68756 21.83 8.55L23.83 5.55C23.9173 5.44164 23.981 5.31626 24.0171 5.18187C24.0531 5.04749 24.0608 4.90705 24.0394 4.76955C24.0181 4.63206 23.9684 4.50052 23.8933 4.38335C23.8183 4.26618 23.7196 4.16596 23.6036 4.0891C23.4876 4.01225 23.3569 3.96044 23.2197 3.93699C23.0826 3.91355 22.942 3.91898 22.8071 3.95295C22.6722 3.98692 22.5458 4.04867 22.4361 4.13426C22.3264 4.21985 22.2358 4.32739 22.17 4.45L20.17 7.45C20.0253 7.67046 19.9735 7.93918 20.0259 8.19764C20.0784 8.4561 20.2308 8.68338 20.45 8.83C20.6111 8.94279 20.8034 9.00225 21 9ZM10.17 8.55C10.2606 8.68756 10.3838 8.80062 10.5286 8.87912C10.6734 8.95763 10.8353 8.99915 11 9C11.1966 9.00225 11.389 8.94279 11.55 8.83C11.7692 8.68338 11.9216 8.4561 11.9741 8.19764C12.0265 7.93918 11.9747 7.67046 11.83 7.45L9.83002 4.45C9.76425 4.32739 9.67361 4.21985 9.56391 4.13426C9.4542 4.04867 9.32785 3.98692 9.19292 3.95295C9.05798 3.91898 8.91745 3.91355 8.7803 3.93699C8.64315 3.96044 8.5124 4.01225 8.39641 4.0891C8.28042 4.16596 8.18175 4.26618 8.10671 4.38335C8.03166 4.50052 7.9819 4.63206 7.96059 4.76955C7.93928 4.90705 7.9469 5.04749 7.98296 5.18187C8.01902 5.31626 8.08273 5.44164 8.17002 5.55L10.17 8.55Z" fill="#B2B0B0"/>
</g>
<defs>
<clipPath id="clip0_18_112">
<rect width="32" height="32" fill="white"/>
</clipPath>
</defs>
</svg>
